<svg width="641" height="132" viewBox="0 0 641 132" fill="none" xmlns="http://www.w3.org/2000/svg">
<path d="M37 61.3996H38C40.5 61.3996 43.4 61.3996 45.9 61.3996C47.5 61.3996 48.8 61.0996 50 60.0996C52.9 57.8996 52.9 53.7996 50 51.8996C49 51.2996 48.1 50.5996 47.1 50.5996C43.6 50.2996 40.4 50.5996 37 50.2996V61.3996ZM37 80.6996H38C40.9 80.6996 43.4 80.6996 46.2 80.6996C46.8 80.6996 47.5 80.6996 48.1 80.6996C51.9 80.0996 54.4 76.5996 53.2 72.7996C52.6 70.2996 50.3 68.9996 48.1 68.3996C46.5 68.0996 44.6 68.0996 43 68.0996C41.1 68.0996 39.2 68.0996 37 68.0996V80.6996ZM24.3 42.9996C27.8 42.9996 31.6 42.9996 35.1 42.9996C39.9 42.9996 44.6 42.9996 49.4 43.2996C53.2 43.2996 56.4 44.5996 58.6 47.6996C61.1 51.1996 61.8 54.9996 60.5 59.0996C59.9 60.9996 58.6 62.2996 57 63.1996C56.4 63.4996 56 63.7996 55.4 64.1996C56.7 64.7996 57.9 65.4996 58.9 66.3996C61.4 68.5996 62.7 71.7996 62.7 75.2996C62.7 79.0996 61.4 82.2996 58.3 84.7996C56.1 86.6996 53.5 87.6996 50.7 87.9996C49.7 87.9996 48.8 88.2996 47.8 88.2996C40.2 88.2996 32.6 88.2996 25 88.2996C24.7 88.2996 24.4 88.2996 24 88.2996V80.9996H27.5V50.5996H24L24.3 42.9996ZM600.8 74.3996C600.8 73.3996 600.8 72.4996 600.8 71.4996C600.5 69.2996 599.2 67.6996 597.3 66.6996C593.8 64.4996 589.7 65.6996 588.1 69.5996C587.1 72.4996 587.1 74.9996 587.8 77.7996C588.4 79.9996 589.4 81.5996 591.6 82.5996C595.7 84.1996 600.8 80.6996 600.8 76.2996V74.3996ZM592.6 95.5996C591.3 95.2996 589.7 94.9996 588.8 94.2996C586.3 92.9996 584.7 91.0996 583.7 88.2996C585 88.2996 586.2 88.2996 587.5 88.2996C587.8 88.2996 587.8 88.5996 588.1 88.5996C590.3 92.3996 594.8 93.3996 598.6 91.0996C600.2 90.0996 600.8 88.8996 601.1 86.9996C601.1 85.0996 601.1 83.1996 601.1 81.2996C600.8 81.5996 600.5 82.2996 600.1 82.5996C596.3 86.9996 589.3 86.0996 586.1 81.5996C583.9 78.6996 583.6 75.5996 583.9 72.0996C583.9 69.8996 584.9 67.9996 585.8 66.0996C589 61.2996 596.6 60.3996 600.1 65.4996C600.4 65.7996 600.7 66.0996 601.1 66.7996V62.6996H608.1V65.5996H604.6V66.5996C604.6 73.2996 604.6 79.8996 604.6 86.5996C604.6 91.3996 601.7 94.1996 597.3 95.1996C596.7 95.1996 596.3 95.4996 595.7 95.4996H592.5V95.5996H592.6ZM622.1 28.9996C622.1 23.8996 618 19.7996 612.9 19.7996C607.8 19.7996 603.7 23.8996 603.4 28.9996C603.4 34.0996 607.5 38.1996 612.6 38.4996C618 38.1996 622.1 34.0996 622.1 28.9996ZM624 30.2996C623.7 32.1996 623 33.7996 621.8 35.3996C618.9 39.1996 614.2 40.7996 609.7 39.4996C605.3 38.1996 602.1 34.3996 601.8 29.9996C601.2 23.9996 605.3 18.5996 611 17.5996C611 17.5996 611.3 17.5996 611.6 17.5996H614.1H614.4C617.6 18.1996 619.8 19.4996 621.7 21.9996C623 23.5996 623.3 25.1996 623.9 27.0996V30.2996H624ZM403 64.4996C402.4 67.6996 401.4 70.7996 400.8 73.9996C399.8 78.3996 398.6 82.8996 397.6 87.2996C397.6 87.5996 397.6 87.8996 397 87.8996C394.1 87.8996 391.3 87.8996 388.4 87.8996C388.1 86.8996 387.8 85.9996 387.8 84.9996C385.6 77.0996 383.4 69.0996 381.5 61.1996C381.5 60.5996 381.2 60.1996 380.5 60.1996C379.9 60.1996 379.2 60.1996 378.3 60.1996V53.4996H391.9V60.1996H388.4C390 66.8996 391.6 73.4996 393.2 80.1996C393.5 79.5996 393.5 78.5996 393.8 77.9996C395.4 70.0996 397 62.0996 398.9 54.4996C398.9 54.1996 399.2 53.8996 399.5 53.8996C402 53.8996 404.6 53.8996 407.1 53.8996C407.7 53.8996 407.7 54.1996 407.7 54.4996C409.6 62.6996 411.2 70.9996 413.1 79.1996C413.1 79.4996 413.1 79.4996 413.4 79.7996L417.8 60.0996H414.3V53.3996H427.9V60.0996C427.3 60.0996 426.3 60.0996 425.7 60.0996C425.4 60.0996 425.1 60.0996 425.1 60.6996C422.9 69.2996 420.3 78.0996 418.1 86.6996C417.8 87.2996 417.8 87.6996 417.1 87.6996C414.6 87.6996 412 87.6996 409.5 87.6996C408.9 87.6996 408.9 87.6996 408.5 87.0996C406.6 79.7996 405 72.4996 403.1 64.8996C403.3 64.7996 403.3 64.7996 403 64.4996ZM357.3 51.7996C355.1 58.4996 353.2 64.7996 351.3 71.4996H363C361.1 64.7996 359.2 58.1996 357.3 51.7996ZM378.5 80.6996V87.9996H368.4C367.8 85.7996 367.1 83.5996 366.5 81.2996C366.2 80.2996 365.9 79.3996 365.5 78.3996C365.5 78.0996 365.2 78.0996 364.9 78.0996C359.8 78.0996 354.8 78.0996 350 78.0996C349.4 78.0996 349.4 78.3996 349.4 78.6996C348.4 81.5996 347.8 84.3996 346.9 87.2996C346.9 87.5996 346.9 87.5996 346.6 87.8996H336.1V80.5996C337.1 80.5996 338 80.5996 339 80.5996C339.6 80.5996 339.6 80.5996 340 79.9996C343.8 67.5996 347.9 55.5996 351.7 43.1996C351.7 42.5996 352 42.5996 352.7 42.5996C355.9 42.5996 359 42.5996 362.5 42.5996C363.1 42.5996 363.1 42.8996 363.5 43.1996C367.6 55.2996 371.4 67.5996 375.6 79.6996C375.9 80.2996 375.9 80.2996 376.6 80.2996C376.6 80.6996 377.6 80.6996 378.5 80.6996ZM502.9 66.3996L517.5 66.6996C517.5 62.8996 514.6 59.9996 510.8 59.9996C507 59.7996 503.2 62.8996 502.9 66.3996ZM527.3 72.7996H502.9C503.2 75.9996 504.2 78.7996 506.7 80.6996C508.9 82.2996 511.5 82.5996 514.3 81.6996C516.2 81.0996 517.2 79.7996 518.1 77.8996C518.4 77.5996 518.4 77.2996 519.1 77.2996C521.6 77.2996 524.5 77.2996 527 76.9996C527 77.5996 526.7 77.9996 526.7 78.2996C524.8 84.2996 520.7 87.7996 514.3 88.7996C510.5 89.3996 507 89.0996 503.5 87.1996C499.1 84.9996 496.2 81.1996 494.9 76.0996C493.6 70.0996 494.3 64.3996 498.1 59.2996C504.4 50.6996 517.8 51.0996 524.1 59.5996C526 62.8996 527.6 68.9996 527.3 72.7996ZM77.3 66.3996L91.9 66.6996C92.2 63.1996 89.4 60.3996 85.6 59.9996C81.7 59.4996 77.6 62.5996 77.3 66.3996ZM101.1 72.7996H76.7C76.7 73.3996 76.7 74.0996 77 74.6996C77.3 75.9996 77.6 77.1996 78.3 78.4996C79.9 81.3996 82.7 82.2996 85.9 81.9996C88.8 81.6996 90.7 80.0996 91.6 77.5996C91.6 77.2996 91.9 77.2996 92.2 77.2996C94.7 77.2996 97.6 76.9996 100.1 76.9996H100.4C100.1 78.8996 99.4 80.4996 98.5 82.0996C96 85.8996 92.5 88.0996 88 88.7996C84.2 89.3996 80.4 89.0996 76.9 87.1996C72.1 84.6996 69.6 80.4996 68.3 75.4996C67.3 70.3996 67.7 65.3996 70.5 60.8996C76.2 51.0996 90.8 50.0996 97.5 59.5996C100 63.3996 101.3 67.7996 101.3 72.5996C101.4 72.4996 101.4 72.4996 101.1 72.7996ZM452.4 71.7996C450.2 72.0996 448 72.0996 446.1 72.7996C444.5 73.0996 443.2 73.3996 441.7 74.0996C439.8 74.6996 439.2 76.2996 439.2 78.1996C439.2 80.0996 440.5 81.3996 442.4 81.9996C445.3 82.9996 448.7 81.9996 451 79.7996C452.8 77.4996 452.8 74.6996 452.4 71.7996ZM452.4 66.0996C452.4 65.0996 452.1 63.8996 452.1 62.8996C451.8 60.9996 450.5 59.6996 448.6 59.3996C447.3 59.0996 445.7 59.0996 444.5 59.3996C442.3 59.9996 440.7 61.2996 440.7 63.7996C440.7 64.0996 440.7 64.3996 440.7 64.7996L432.5 64.4996C432.5 62.8996 432.8 61.2996 433.8 60.0996C435.1 57.5996 437.3 55.6996 439.8 54.6996C444.9 52.7996 449.9 52.7996 455 54.9996C459.1 56.5996 461 60.0996 461.3 64.1996C461.6 67.9996 461.3 71.7996 461.3 75.8996C461.3 77.7996 461.3 79.6996 461.3 81.8996H464.2V88.5996H453.4V84.7996C453.1 85.0996 452.4 85.7996 452.1 86.0996C447 90.4996 438.5 90.1996 433.7 85.7996C429.6 81.6996 429.6 73.3996 435.9 70.2996C438.8 68.6996 441.6 68.0996 444.8 67.7996C447.3 67.4996 449.9 67.1996 452.7 66.7996C452.1 66.0996 452.1 66.0996 452.4 66.0996ZM197.5 59.7996C198.8 58.4996 199.7 57.2996 201 55.9996C203.9 53.4996 207 52.4996 210.8 53.0996C213.7 53.6996 215.2 55.2996 216.2 57.8996C216.5 58.4996 216.5 59.1996 216.8 59.7996C217.1 59.4996 217.4 58.7996 217.8 58.4996C219.4 55.9996 221.6 53.6996 224.8 53.0996C227.7 52.4996 230.5 52.4996 232.7 54.3996C234.6 55.9996 235.2 58.1996 235.6 60.3996C235.6 60.9996 235.6 61.9996 235.6 62.5996C235.6 69.2996 235.6 75.8996 235.6 82.2996V83.2996H240.4V87.3996H230.9V86.3996C230.9 78.4996 230.9 70.8996 230.9 62.8996C230.9 61.8996 230.9 61.2996 230.6 60.3996C230 57.1996 227.7 55.5996 224.3 56.5996C221.8 57.1996 220.2 58.7996 218.6 60.9996C217.3 62.8996 216.7 65.0996 216.7 67.2996C216.7 72.3996 216.7 77.3996 216.7 82.4996V83.4996H221.8V87.5996H211.4V86.5996C211.4 78.6996 211.4 70.6996 211.4 62.7996C211.4 61.7996 211.4 60.8996 211.1 59.8996C210.5 57.9996 209.2 56.9996 207.3 56.6996C204.4 56.3996 202.5 57.6996 200.6 59.5996C198.4 62.0996 197.1 64.6996 197.4 68.1996C197.4 72.9996 197.4 77.6996 197.4 82.7996V83.7996H202.5V87.8996H188V83.7996H192.8V57.4996H188V53.3996H198.1C197.2 55.5996 197.2 57.5996 197.5 59.7996ZM139.4 69.5996H128.9C128.9 68.2996 128.9 66.6996 129.2 65.4996H145.1V87.6996H140.1V80.6996C139.8 80.9996 139.8 80.9996 139.8 81.2996C136.6 86.0996 132.5 88.5996 126.8 88.8996C122.4 88.8996 118.9 87.2996 115.4 84.4996C111.6 80.9996 109.4 76.5996 108.4 71.7996C107.1 65.4996 107.8 59.0996 110.3 53.0996C112.2 48.9996 115.1 45.4996 119.2 43.5996C125.9 40.3996 134.1 41.6996 138.9 48.6996C138.9 48.9996 139.2 48.9996 139.5 49.2996V42.2996H144.3V56.5996H139.1C138.8 54.6996 137.8 53.0996 136.9 51.4996C134.4 47.9996 130.9 46.0996 126.8 46.0996C123 46.0996 119.8 47.9996 117.6 50.8996C115.4 53.3996 114.4 56.5996 113.8 60.0996C113.2 64.8996 113.5 69.2996 115.1 73.6996C116.1 76.1996 117.3 78.4996 119.5 80.3996C123.3 83.8996 128.1 84.4996 132.5 82.2996C136.9 80.3996 139.8 74.9996 139.4 69.5996ZM273.9 70.5996C273.9 69.9996 273.9 69.2996 273.9 68.3996C273.6 65.8996 272.9 63.2996 271.7 61.0996C269.2 57.5996 265 56.2996 261.2 58.1996C257.7 59.7996 254.2 64.1996 254.9 68.9996C255.2 71.4996 254.9 73.7996 255.5 76.2996C256.1 80.3996 260.3 83.8996 264.4 84.4996C267.9 84.7996 271.1 82.8996 272.6 79.6996C273.3 76.5996 273.9 73.6996 273.9 70.5996ZM249.5 45.1996H245.1V41.0996H254.6V60.7996C254.9 60.4996 254.9 60.1996 255.2 60.1996C256.2 58.5996 257.7 56.9996 259.3 55.7996C263.7 52.5996 269.1 52.5996 273.6 56.3996C276.8 58.8996 278.4 62.3996 279.3 66.1996C280.6 71.8996 279.9 77.2996 276.8 82.3996C275.2 84.8996 273 87.1996 270.1 88.3996C265.7 89.9996 260.6 88.6996 257.4 85.1996C256.8 84.1996 255.8 83.2996 254.9 82.2996V88.2996H245.1V84.1996H249.9V45.1996H249.5ZM173.4 70.5996C173.1 70.5996 172.8 70.5996 172.8 70.5996C169.9 70.8996 167.1 71.5996 163.9 72.1996C162 72.4996 160.1 73.1996 158.5 74.3996C157.5 74.9996 156.6 75.9996 156.6 77.5996C156 81.3996 158.8 85.1996 162.9 85.4996C167.3 85.7996 172.1 82.2996 173 77.8996C173.4 74.9996 173 72.7996 173.4 70.5996ZM177.8 84.1996H182.6C182.6 85.4996 182.9 87.0996 182.9 88.2996H173.1V82.2996C172.8 82.5996 172.8 82.5996 172.8 82.5996C170.3 86.6996 166.5 88.5996 161.7 88.8996C157.6 89.1996 154.4 87.5996 152.2 84.0996C150.3 80.8996 149.7 77.7996 151.6 74.2996C152.6 72.0996 154.5 71.0996 156.7 70.1996C159.6 68.8996 162.7 68.2996 165.9 67.6996C168.1 67.3996 170.7 67.0996 173.2 66.6996C173.2 65.0996 173.2 63.1996 172.9 61.5996C172.3 59.0996 170.4 57.7996 168.1 57.1996C166.2 56.5996 164 56.8996 162.1 57.1996C159.6 57.7996 158 59.6996 157.3 61.9996C157 62.5996 157 62.9996 156 62.9996C154.4 62.9996 153.1 62.9996 151.6 62.9996C152.6 58.8996 154.5 55.9996 158.3 54.0996C162.7 52.1996 167.2 52.1996 171.6 54.0996C175.1 55.6996 177 58.4996 177.6 62.2996C177.6 63.2996 177.6 63.8996 177.6 64.7996C177.6 70.7996 177.6 76.4996 177.6 82.5996L177.8 84.1996ZM306.2 67.9996H324.9C324.9 65.0996 323.9 62.8996 322.7 60.6996C320.8 58.1996 318.6 56.8996 315.4 57.4996C309.4 58.1996 306.6 62.5996 306.2 67.9996ZM330.7 71.7996H306C306.3 73.0996 306.3 73.9996 306.6 74.9996C306.9 76.8996 307.6 78.7996 308.8 80.6996C311.3 84.4996 317 85.7996 320.5 83.5996C322.1 82.5996 323 81.0996 324 79.4996C324.3 78.8996 324.6 78.4996 325.3 78.4996C326.9 78.4996 328.5 78.4996 330.1 78.4996C329.8 79.0996 329.8 79.7996 329.5 80.3996C327.3 85.4996 321.3 88.9996 315.5 88.2996C307.6 87.6996 302.2 82.2996 300.9 74.2996C299.9 69.1996 300.6 64.1996 303.4 59.6996C305.6 55.8996 309.1 53.3996 313.5 52.6996C319.8 51.6996 325.6 54.8996 328.4 60.5996C330 63.7996 330.6 67.2996 330.6 71.0996C330.7 71.7996 330.7 71.7996 330.7 71.7996ZM480 81.2996H484.1V87.9996H468.2V81.2996H471.7V60.3996H468.2V53.6996H479.9V58.7996C480.2 58.4996 480.5 57.7996 480.5 57.4996C481.8 55.5996 483.4 53.6996 485.9 53.3996C487.8 52.7996 490 53.0996 491.9 53.3996L492.2 53.6996C492.2 56.1996 492.2 58.7996 492.2 61.2996C491.2 61.2996 490.3 60.9996 489.3 60.9996C486.8 60.6996 484.2 61.2996 482.3 62.8996C480.7 64.1996 480.1 66.0996 479.8 67.9996C479.8 72.0996 479.8 76.1996 479.8 80.6996C479.7 80.9996 479.7 80.9996 480 81.2996ZM286.9 44.8996H282.1V41.0996H291.9V83.8996H296.3V87.9996H282.1V83.8996H286.9V44.8996ZM543.5 75.5996C543.5 77.4996 543.8 79.3996 544.5 81.2996C545.8 83.7996 547.7 85.3996 550.5 85.3996C553.3 85.3996 555.6 84.0996 556.8 81.5996C557.4 79.9996 557.8 78.6996 558.1 76.7996C558.4 74.2996 558.1 71.6996 556.8 69.4996C555.5 66.9996 553.3 65.6996 550.5 65.6996C547.7 65.6996 546.1 67.2996 544.8 69.4996C543.5 71.4996 543.5 73.3996 543.5 75.5996ZM561.8 74.9996C561.8 78.1996 561.2 80.9996 559.6 83.1996C557.1 86.9996 553.6 88.2996 549.1 87.9996C545 87.6996 542.1 85.0996 540.5 81.2996C538.9 77.1996 538.6 72.6996 540.5 68.5996C542.4 64.4996 545.9 62.2996 550.6 62.2996C555.3 62.2996 558.5 64.4996 560.4 68.5996C561.5 70.8996 561.8 73.0996 561.8 74.9996ZM575.8 87.6996H564.7V84.7996H568.2V66.0996H564.7V63.1996H572V68.2996C573.3 66.0996 574.9 63.8996 577.4 62.8996C578.7 62.5996 580.9 62.5996 582.2 62.8996V66.3996C581.6 66.3996 580.9 66.3996 580.3 66.0996C575.9 65.7996 572.1 68.9996 572.1 73.3996C572.1 76.8996 572.1 80.6996 572.1 84.1996V84.4996H576.2L575.8 87.6996ZM531.4 83.5996H535.5V87.6996H531.4V83.5996ZM610 23.8996V27.6996C611.3 27.6996 612.5 27.6996 613.8 27.6996C614.1 27.6996 614.4 27.6996 614.8 27.3996C615.8 27.0996 616.1 26.3996 615.8 25.1996C615.8 24.1996 615.2 23.5996 614.2 23.5996C612.9 23.8996 611.6 23.8996 610 23.8996ZM615.4 28.6996C616.7 28.9996 617 29.9996 617 30.8996C617 31.7996 617.3 33.0996 617.3 34.0996C615.4 34.0996 615.7 34.3996 615.4 32.4996C615.4 31.8996 615.4 31.1996 615.1 30.5996C614.8 29.5996 614.5 28.9996 613.2 28.9996C611.9 28.9996 610.7 28.9996 609.4 28.9996V33.7996H607.8V22.3996C608.1 22.3996 608.4 22.3996 609.1 22.3996C610.7 22.3996 612.3 22.3996 613.9 22.3996C615.5 22.3996 616.4 23.3996 616.8 24.5996C617.7 26.4996 617 27.6996 615.4 28.6996Z" fill="white"/>
</svg>
