<svg width="641" height="132" viewBox="0 0 641 132" fill="none" xmlns="http://www.w3.org/2000/svg">
<path d="M248.407 52.8516C248.655 53.7815 248.345 54.3394 247.601 54.5873L240.472 56.695C239.604 56.9429 239.17 56.695 238.86 55.8271C237.745 52.1697 235.389 50.248 230.988 50.248C224.293 50.248 221.999 54.2154 221.999 59.5465V71.8205C221.999 77.1516 224.231 81.1189 230.988 81.1189C236.505 81.1189 239.418 78.5773 239.418 72.9363V71.3245H232.166C231.546 71.3245 231.174 71.0146 231.174 70.2707V63.4518C231.112 62.9559 231.484 62.46 232.042 62.398C232.104 62.398 232.166 62.398 232.166 62.398H248.283C248.965 62.398 249.337 62.708 249.337 63.3899V73.5562C249.337 83.2265 242.208 90.5413 231.112 90.5413C217.97 90.5413 211.833 82.7306 211.833 72.0684V59.1126C211.833 48.4504 217.97 40.6396 231.112 40.6396C241.712 40.7016 246.485 46.7766 248.407 52.8516ZM284.547 64.9396V88.7436C284.609 89.2395 284.175 89.6735 283.679 89.7355C283.617 89.7355 283.617 89.7355 283.555 89.7355H276.302C275.806 89.7974 275.31 89.4255 275.248 88.8676C275.248 88.8056 275.248 88.7436 275.248 88.7436V84.8383C273.141 88.3717 269.359 90.5413 265.206 90.4793C258.325 90.4793 253.924 86.0781 253.924 79.2592C253.924 72.6263 258.077 68.721 268.244 67.9771C270.413 67.7911 272.645 67.7911 274.876 67.9151V65.2495C274.876 61.7161 273.017 60.2904 269.855 60.2904C266.632 60.2904 265.702 61.5922 264.834 63.6378C264.524 64.4437 264.214 64.5677 263.532 64.3817L256.28 62.522C255.536 62.336 255.474 61.9021 255.598 61.4062C256.59 56.1991 261.549 52.3557 270.227 52.3557C279.402 52.4177 284.547 56.819 284.547 64.9396ZM274.876 77.4615V73.9901C272.955 73.9281 270.971 73.9901 269.049 74.1761C265.33 74.61 263.408 75.7878 263.408 78.5773C263.408 81.1189 265.144 82.5447 267.934 82.5447C271.157 82.5447 273.699 80.8089 274.876 77.4615ZM310.706 52.4177C315.294 52.4177 318.331 55.1452 319.757 59.0506C322.485 55.0832 325.77 52.4177 330.357 52.4177C336.742 52.4177 340.4 57.5008 340.4 65.0636V88.7436C340.4 89.3635 339.842 89.7355 339.222 89.7355H331.659C330.977 89.7355 330.481 89.3635 330.481 88.7436V66.7993C330.481 63.5138 329.055 61.5302 326.452 61.5302C323.724 61.5302 321.741 63.7618 320.811 67.1712V88.7436C320.873 89.2395 320.439 89.6735 319.943 89.7355H319.881H311.698C311.078 89.7355 310.83 89.3635 310.83 88.7436V66.7993C310.83 63.5138 309.343 61.5302 306.801 61.5302C304.012 61.5302 302.028 63.8858 301.16 67.2952V88.8056C301.222 89.3015 300.85 89.7355 300.354 89.7974C300.292 89.7974 300.23 89.7974 300.168 89.7974H292.172C291.676 89.8594 291.242 89.4875 291.18 88.9916C291.18 88.9296 291.18 88.8676 291.18 88.8056V54.2154C291.18 53.7195 291.614 53.2855 292.11 53.2855H292.172H299.858C300.354 53.2236 300.788 53.5955 300.85 54.1534V54.2154V58.3687C302.958 55.2692 306.119 52.4177 310.706 52.4177ZM381.871 53.2235C382.057 54.0914 381.809 54.7113 381.003 54.9593L373.998 57.0049C373.13 57.2529 372.696 56.9429 372.386 56.1371C371.394 52.8516 369.659 50.1861 364.823 50.1861C358.81 50.1861 356.889 54.1534 356.889 59.4845V71.7585C356.889 77.0896 359.058 81.0569 364.823 81.0569C369.969 81.0569 371.952 78.1434 372.758 74.548C372.944 73.7421 373.502 73.3702 374.37 73.6801L381.375 75.9118C382.181 76.1597 382.429 76.7796 382.243 77.6475C380.569 84.7763 375.424 90.6033 364.761 90.6033C352.735 90.6033 346.722 82.7926 346.722 72.1304V59.1745C346.722 48.5123 352.921 40.7016 364.761 40.7016C375.176 40.7016 380.073 46.2187 381.871 53.2235ZM417.019 64.9396V88.7436C417.081 89.2395 416.647 89.6735 416.151 89.7355C416.089 89.7355 416.089 89.7355 416.027 89.7355H408.774C408.278 89.7974 407.782 89.4255 407.72 88.8676C407.72 88.8056 407.72 88.7436 407.72 88.7436V84.8383C405.613 88.3717 401.831 90.5413 397.678 90.4793C390.797 90.4793 386.396 86.0781 386.396 79.2592C386.396 72.6263 390.549 68.721 400.715 67.9771C402.885 67.7911 405.117 67.7911 407.348 67.9151V65.2495C407.348 61.7161 405.489 60.2904 402.327 60.2904C399.104 60.2904 398.174 61.5922 397.306 63.6378C396.996 64.4437 396.686 64.5677 396.004 64.3817L388.751 62.522C388.008 62.336 387.946 61.9021 388.07 61.4062C389.061 56.1991 394.021 52.3557 402.699 52.3557C411.874 52.4177 417.019 56.819 417.019 64.9396ZM407.286 77.4615V73.9901C405.365 73.9281 403.381 73.9901 401.459 74.1761C397.74 74.61 395.818 75.7878 395.818 78.5773C395.818 81.1189 397.554 82.5447 400.344 82.5447C403.629 82.5447 406.109 80.8089 407.286 77.4615ZM445.224 53.9054V60.9723C445.224 61.8401 444.914 62.1501 444.046 62.1501H442.992C437.723 62.1501 434.624 64.5057 433.57 68.473V88.8056C433.632 89.3015 433.26 89.7355 432.764 89.7974H432.702H424.396C423.9 89.7974 423.528 89.3635 423.528 88.8676C423.528 88.8676 423.528 88.8676 423.528 88.8056V54.1534C423.528 53.6575 423.9 53.2235 424.334 53.2235C424.396 53.2235 424.457 53.2235 424.457 53.2235H431.958C432.764 53.2235 432.95 53.7195 432.95 54.2774V59.1745C434.686 55.9511 437.909 52.7896 443.55 52.7896C444.976 52.7896 445.224 52.9756 445.224 53.9054ZM458.18 74.548V75.9118C458.18 79.7551 460.164 82.4207 464.813 82.4207C469.338 82.4207 470.64 80.685 471.818 78.5153C472.437 77.5235 472.685 77.3995 473.739 77.8334L478.946 80.499C480 81.0569 480.062 81.5528 479.628 82.5447C477.397 87.6278 471.756 90.5413 464.813 90.5413C454.275 90.5413 448.695 84.2804 448.695 75.7258V67.2952C448.695 58.9886 453.903 52.4797 464.689 52.4797C474.979 52.4797 480 58.9886 480 67.1092V72.9363C480 73.9281 479.69 74.61 478.265 74.61L458.18 74.548ZM458.18 66.7993V68.0391H470.888V66.7993C470.888 63.2659 468.904 60.4763 464.565 60.4763C460.226 60.4763 458.18 63.2659 458.18 66.7993Z" fill="white"/>
<path d="M153.624 12H109.364C108.62 12 108 12.6199 108 13.3638V77.709C108 100.645 126.597 119.304 149.595 119.304H153.624C176.561 119.304 195.157 100.707 195.157 77.709V53.5951C195.219 30.5969 176.623 12 153.624 12ZM181.892 78.3909C181.892 94.0123 170.362 105.852 152.509 105.852C131.308 105.852 121.39 93.2684 121.39 76.0353V55.1448C121.39 37.9117 131.308 25.3278 152.509 25.3278C169.68 25.3278 177.428 35.1221 180.528 44.9165C180.962 46.4043 180.404 47.2721 179.226 47.706L167.696 51.1155C166.332 51.5494 165.588 51.1155 165.154 49.7517C163.357 43.8627 159.513 40.7012 152.509 40.7012C141.66 40.7012 138.003 47.0861 138.003 55.7027V75.5394C138.003 84.156 141.598 90.5409 152.509 90.5409C161.435 90.5409 166.146 86.3876 166.146 77.3371V74.7955H154.244C153.314 74.7955 152.633 74.2376 152.633 73.1218V62.1496C152.633 61.0958 153.252 60.4139 154.244 60.4139H180.218C181.272 60.4139 181.892 60.9718 181.892 62.0256V78.3909Z" fill="white"/>
</svg>
