<svg width="641" height="132" viewBox="0 0 641 132" fill="none" xmlns="http://www.w3.org/2000/svg">
<path d="M313.372 107.773H90.8376C88.5756 107.773 86.7036 105.901 86.7036 103.639V65.1074C86.7036 42.8774 104.722 24.8594 126.952 24.8594H313.294C315.556 24.8594 317.428 26.7314 317.428 28.9934V103.873C317.428 106.135 315.556 108.007 313.294 108.007V107.773H313.372Z" fill="#1D1D1B"/>
<path d="M313.37 108.708H90.914C88.184 108.708 86 106.524 86 103.794V65.262C86 42.486 104.486 24 127.262 24H313.37C316.1 24 318.284 26.184 318.284 28.914V103.794C318.284 106.524 316.1 108.708 313.37 108.708ZM127.184 25.95C105.5 25.95 87.872 43.578 87.872 65.262V103.794C87.872 105.432 89.198 106.836 90.914 106.836H313.448C315.086 106.836 316.49 105.51 316.49 103.794V28.914C316.49 27.276 315.164 25.872 313.448 25.872L127.184 25.95Z" fill="white"/>
<path d="M164.624 63.39V94.2781C164.624 94.5901 164.39 94.824 164.078 94.824H151.91C151.598 94.824 151.364 94.5901 151.364 94.2781C151.364 93.9661 151.13 93.732 150.818 93.732C150.74 93.732 150.662 93.732 150.584 93.732C149.336 94.122 148.166 94.4341 146.84 94.5901C145.358 94.8241 143.798 94.9801 142.238 94.9801C138.494 94.9021 134.828 94.1221 131.396 92.7181C127.808 91.3141 124.532 89.1301 121.88 86.4C119.15 83.748 117.044 80.55 115.64 77.04C114.314 73.608 113.612 69.942 113.612 66.198C113.612 62.454 114.314 58.788 115.64 55.356C117.044 51.768 119.15 48.492 121.88 45.84C124.61 43.11 127.808 40.926 131.396 39.522C138.338 36.714 146.138 36.714 153.08 39.522C156.434 40.848 159.554 42.876 162.128 45.45C162.362 45.684 162.362 46.074 162.128 46.23L153.548 54.81C153.314 55.044 152.924 55.044 152.768 54.81C151.364 53.484 149.804 52.47 148.01 51.768C144.266 50.286 140.054 50.286 136.31 51.768C134.36 52.548 132.644 53.64 131.162 55.122C125.078 61.206 125.078 71.034 131.084 77.04C131.084 77.04 131.084 77.04 131.162 77.118C132.488 78.444 134.048 79.5361 135.764 80.3161C137.402 81.0961 139.196 81.486 140.99 81.642C142.784 81.798 144.578 81.642 146.372 81.174C148.01 80.706 149.648 80.004 151.052 78.99C151.208 78.912 151.286 78.678 151.286 78.522V76.572C151.286 76.26 151.052 76.0261 150.74 76.0261H140.444C140.132 76.0261 139.898 75.792 139.898 75.48V63.468C139.898 63.156 140.132 62.922 140.444 62.922H164C164.312 62.766 164.624 63 164.624 63.39Z" fill="white"/>
<path d="M209.786 94.5127L207.836 88.5847C207.758 88.3507 207.524 88.1947 207.29 88.1947H189.974C189.74 88.1947 189.506 88.3507 189.428 88.5847L187.4 94.7467C187.322 94.9807 187.088 95.1367 186.854 95.1367H174.14C173.828 95.1367 173.594 94.9027 173.594 94.5907C173.594 94.5127 173.594 94.4347 173.594 94.3567L192.704 38.1966C192.782 37.9626 193.016 37.8066 193.25 37.8066H204.872C205.106 37.8066 205.34 37.9626 205.418 38.1966L223.514 94.3567C223.592 94.6687 223.514 94.9807 223.202 95.1367C223.124 95.1367 223.046 95.2147 222.968 95.1367H210.332C210.02 95.1367 209.786 94.9027 209.786 94.5127ZM194.966 74.7787H202.61C202.922 74.7787 203.234 74.5447 203.234 74.2327C203.234 74.1547 203.234 74.0767 203.234 73.9987L199.49 62.5326C199.412 62.2206 199.1 62.0646 198.788 62.1426C198.554 62.2206 198.476 62.3766 198.398 62.5326L194.264 73.9987C194.108 74.3107 194.264 74.6227 194.576 74.7787C194.732 74.8567 194.81 74.8567 194.966 74.7787Z" fill="white"/>
<path d="M274.214 37.4941H286.85C287.162 37.4941 287.396 37.7282 287.396 38.0402L290.672 94.2782C290.672 94.5902 290.438 94.9022 290.126 94.9022C290.126 94.9022 290.126 94.9022 290.048 94.9022H278.114C277.802 94.9022 277.568 94.6682 277.568 94.3562L276.398 74.4662C276.398 74.1542 276.164 73.9202 275.852 73.9202C275.54 73.9202 275.306 74.1542 275.306 74.4662L268.52 94.5122C268.442 94.7462 268.208 94.9022 267.974 94.9022H255.494C255.26 94.9022 255.026 94.7462 254.948 94.5122L247.538 73.2962C247.538 72.9842 247.304 72.7502 246.992 72.7502C246.68 72.7502 246.446 72.9842 246.446 73.2962L245.12 94.2002C245.12 94.5122 244.808 94.7462 244.574 94.7462H232.406C232.094 94.7462 231.86 94.5122 231.86 94.2002C231.86 94.2002 231.86 94.2002 231.86 94.1222L235.526 38.1182C235.526 37.8062 235.838 37.5721 236.072 37.5721H248.708C248.942 37.5721 249.176 37.7281 249.254 37.9621L261.11 71.8922C261.188 72.2042 261.5 72.3602 261.812 72.2822C262.046 72.2042 262.124 72.0482 262.202 71.8922L273.746 37.9621C273.746 37.7281 273.98 37.5721 274.214 37.4941Z" fill="white"/>
<path d="M326.552 24.9365H549.086C551.348 24.9365 553.22 26.8085 553.22 29.0705V67.6025C553.22 89.8325 535.202 107.851 512.972 107.851H326.552C324.29 107.851 322.418 105.979 322.418 103.717V28.8365C322.496 26.6525 324.29 24.9365 326.552 24.9365Z" fill="#1D1D1B"/>
<path d="M512.738 108.708H326.552C323.822 108.708 321.638 106.524 321.638 103.794V28.914C321.638 26.184 323.822 24 326.552 24H549.086C551.816 24 554 26.184 554 28.914V67.446C554 90.222 535.514 108.63 512.738 108.708ZM326.552 25.95C324.914 25.95 323.51 27.276 323.51 28.992V103.794C323.51 105.432 324.836 106.836 326.552 106.836H512.816C534.5 106.836 552.128 89.208 552.128 67.524V28.992C552.128 27.354 550.802 25.95 549.086 25.95H326.552Z" fill="white"/>
<path d="M359.234 94.9798C357.44 94.9798 355.568 94.7458 353.852 94.1998C352.058 93.7318 350.342 92.9518 348.704 91.8598C345.974 90.0658 343.712 87.6478 342.152 84.8398C340.67 82.1098 339.89 79.0678 339.812 75.9478C339.812 75.6358 340.046 75.3238 340.358 75.3238C340.358 75.3238 340.358 75.3238 340.436 75.3238H352.682C352.994 75.3238 353.228 75.5578 353.228 75.8698C353.228 76.9618 353.618 78.0538 354.242 78.9118C354.71 79.6138 355.334 80.2378 356.036 80.7058C356.972 81.3298 357.986 81.7198 359.078 81.7198C360.17 81.7978 361.262 81.5638 362.276 81.0958C362.978 80.8618 363.524 80.4718 364.07 79.9258C364.46 79.5358 364.85 79.0678 365.084 78.5998C365.318 78.2098 365.474 77.7418 365.474 77.3518C365.552 76.6498 365.552 76.0258 365.474 75.3238C365.396 74.8558 365.24 74.3878 365.084 73.9978C364.85 73.5298 364.46 73.0618 364.07 72.6718C363.524 72.2038 362.978 71.8138 362.276 71.5018L360.482 70.7998L358.454 70.0978L354.32 68.6938C352.838 68.1478 351.512 67.4458 350.186 66.5878C348.392 65.4958 346.832 64.0918 345.584 62.4538C343.088 59.0998 341.918 54.9658 342.308 50.7538C342.464 48.6478 343.088 46.5418 344.102 44.6698C345.038 42.9538 346.208 41.3938 347.612 40.0678C349.016 38.8198 350.576 37.7278 352.292 36.9478C354.008 36.1678 355.88 35.6998 357.83 35.6218C359.858 35.4658 361.886 35.6218 363.836 36.1678C365.708 36.6358 367.58 37.3378 369.218 38.4298C370.778 39.4438 372.182 40.6918 373.352 42.0958C374.444 43.4998 375.224 45.0598 375.848 46.6978C376.394 48.2578 376.706 49.9738 376.784 51.6898C376.784 52.0018 376.55 52.3138 376.238 52.3138C376.238 52.3138 376.238 52.3138 376.16 52.3138H364.226C363.914 52.3138 363.68 52.0798 363.68 51.8458C363.68 51.0658 363.212 50.2858 362.588 49.8958C361.964 49.5058 361.34 49.1938 360.638 48.9598H360.014C359.546 48.8818 359.156 48.8818 358.688 48.9598C358.142 49.0378 357.596 49.1938 357.128 49.5058C356.582 49.8178 356.114 50.2858 355.88 50.8318C355.49 51.6118 355.412 52.5478 355.646 53.4058C355.88 54.2638 356.426 55.0438 357.206 55.5898C357.986 56.0578 358.766 56.3698 359.624 56.6818L362.432 57.6958L365.084 58.5538C366.02 58.8658 366.878 59.1778 367.814 59.6458C374.444 62.5318 378.734 69.0838 378.812 76.3378C378.812 79.9258 377.798 83.4358 375.848 86.3998C373.04 90.6118 368.672 93.5758 363.68 94.6678C362.12 94.8238 360.638 94.9798 359.234 94.9798Z" fill="white"/>
<path d="M535.67 61.7524C535.67 64.9504 535.046 68.0704 533.876 71.0344C532.706 73.8424 530.99 76.4164 528.806 78.6004C526.622 80.7844 524.048 82.5784 521.24 83.8264C518.51 85.0744 515.624 85.6984 512.582 85.7764C512.27 85.7764 512.036 86.0104 512.036 86.3224V94.3564C512.036 94.6684 511.802 94.9024 511.49 94.9024H499.478C499.166 94.9024 498.932 94.6684 498.932 94.3564V38.1964C498.932 37.8844 499.166 37.6504 499.478 37.6504H512.036C515.234 37.6504 518.354 38.3524 521.24 39.6784C524.048 40.9264 526.622 42.7204 528.806 44.9044C530.99 47.0884 532.706 49.6624 533.876 52.4704C535.046 55.4344 535.67 58.5544 535.67 61.7524ZM511.958 72.0484C511.958 72.3604 512.192 72.5944 512.504 72.5944C512.504 72.5944 512.504 72.5944 512.582 72.5944C513.752 72.5164 514.922 72.1264 516.014 71.6584C517.262 71.1124 518.354 70.2544 519.29 69.3184C520.226 68.3044 521.006 67.1344 521.552 65.8864C522.644 63.2344 522.644 60.2704 521.552 57.6184C521.006 56.3704 520.304 55.2004 519.29 54.1864C518.354 53.1724 517.184 52.3924 516.014 51.8464C514.922 51.3004 513.752 50.9884 512.582 50.9104C512.27 50.9104 512.036 51.0664 511.958 51.3784V72.0484Z" fill="white"/>
<path d="M457.904 37.5723C461.726 37.5723 465.548 38.3523 469.058 39.8343C472.49 41.3163 475.532 43.3443 478.184 45.9183C480.758 48.4923 482.864 51.6123 484.346 54.9663C487.388 62.1423 487.388 70.1763 484.346 77.2743C482.864 80.6283 480.836 83.7483 478.184 86.3223C475.532 88.9743 472.49 91.0803 469.058 92.5623C461.96 95.6043 453.926 95.6043 446.75 92.5623C439.886 89.6763 434.426 84.2163 431.54 77.3523C428.576 70.1763 428.576 62.1423 431.54 55.0443C434.426 48.1803 439.886 42.7203 446.75 39.8343C450.26 38.3523 454.082 37.5723 457.904 37.5723ZM457.904 81.7203C460.01 81.7203 462.038 81.3303 463.91 80.5503C467.654 78.9903 470.618 76.0263 472.178 72.2823C473.816 68.4603 473.816 64.0923 472.178 60.2703C470.618 56.5263 467.654 53.5623 463.91 52.0023C460.088 50.3643 455.72 50.3643 451.898 52.0023C448.154 53.5623 445.19 56.5263 443.63 60.2703C441.992 64.0923 441.992 68.4603 443.63 72.2823C445.19 76.0263 448.154 78.9903 451.898 80.5503C453.848 81.3303 455.876 81.7203 457.904 81.7203Z" fill="white"/>
<path d="M399.482 50.208H411.65C411.962 50.208 412.196 50.442 412.196 50.754V94.356C412.196 94.668 411.962 94.902 411.65 94.902H399.482C399.17 94.902 398.936 94.668 398.936 94.356V50.754C398.936 50.442 399.17 50.208 399.482 50.208Z" fill="white"/>
<path d="M388.562 37.5723H422.57C422.882 37.5723 423.116 37.8063 423.116 38.1183V50.2863C423.116 50.5983 422.882 50.8323 422.57 50.8323H388.562C388.25 50.8323 388.016 50.5983 388.016 50.2863V38.1183C388.016 37.8843 388.25 37.5723 388.562 37.5723Z" fill="white"/>
</svg>
